HIERARCHY
ROOT Hips
{
  OFFSET 0.000000 0.000000 0.000000
  CHANNELS 6 Xposition Yposition Zposition Zrotation Xrotation Yrotation
  JOINT Spine
  {
    OFFSET 0.769724 46.724870 -13.091491
    CHANNELS 3 Zrotation Xrotation Yrotation
    JOINT Spine1
    {
      OFFSET 0.000000 15.000000 0.000000
      CHANNELS 3 Zrotation Xrotation Yrotation
      JOINT Neck
      {
        OFFSET 0.000000 5.000000 0.000000
        CHANNELS 3 Zrotation Xrotation Yrotation
        JOINT Head
        {
          OFFSET -1.755462 0.819106 -29.216816
          CHANNELS 3 Zrotation Xrotation Yrotation
          End Site
          {
            OFFSET 0.0 -5.0 0.0
          }
        }
      }
      JOINT LeftShoulder
      {
        OFFSET 16.753096 -1.874518 -2.350806
        CHANNELS 3 Zrotation Xrotation Yrotation
        JOINT LeftArm
        {
          OFFSET 9.215470 -17.927143 -6.750691
          CHANNELS 3 Zrotation Xrotation Yrotation
          JOINT LeftForeArm
          {
            OFFSET -8.631796 -1.807562 -13.626102
            CHANNELS 3 Zrotation Xrotation Yrotation
            JOINT LeftHand
            {
              OFFSET -6.479284 4.149559 -4.074347
              CHANNELS 3 Zrotation Xrotation Yrotation
              End Site
              {
                OFFSET 0.0 -5.0 0.0
              }
            }
          }
        }
      }
      JOINT RightShoulder
      {
        OFFSET -16.753096 1.874518 2.350806
        CHANNELS 3 Zrotation Xrotation Yrotation
        JOINT RightArm
        {
          OFFSET -4.024878 -26.092607 -12.467419
          CHANNELS 3 Zrotation Xrotation Yrotation
          JOINT RightForeArm
          {
            OFFSET 6.746233 1.826222 -21.720462
            CHANNELS 3 Zrotation Xrotation Yrotation
            JOINT RightHand
            {
              OFFSET 8.689702 8.756606 -7.702330
              CHANNELS 3 Zrotation Xrotation Yrotation
              End Site
              {
                OFFSET 0.0 -5.0 0.0
              }
            }
          }
        }
      }
    }
  }
  JOINT LeftUpLeg
  {
    OFFSET 9.108096 0.180174 1.189578
    CHANNELS 3 Zrotation Xrotation Yrotation
    JOINT LeftLeg
    {
      OFFSET 8.006705 -41.225060 -10.059709
      CHANNELS 3 Zrotation Xrotation Yrotation
      JOINT LeftFoot
      {
        OFFSET 4.246485 -35.555318 10.676362
        CHANNELS 3 Zrotation Xrotation Yrotation
        End Site
        {
          OFFSET 0.0 -5.0 0.0
        }
      }
    }
  }
  JOINT RightUpLeg
  {
    OFFSET -9.108096 -0.180174 -1.189578
    CHANNELS 3 Zrotation Xrotation Yrotation
    JOINT RightLeg
    {
      OFFSET -2.107032 -32.214779 1.747249
      CHANNELS 3 Zrotation Xrotation Yrotation
      JOINT RightFoot
      {
        OFFSET -2.851593 -40.027121 17.168811
        CHANNELS 3 Zrotation Xrotation Yrotation
        End Site
        {
          OFFSET 0.0 -5.0 0.0
        }
      }
    }
  }
}

MOTION
Frames: 6
Frame Time: 0.041667
0.051769 0.140105 0.154114 0.000000 0.000000 0.000000 0.000000 0.000000 0.000000 0.000000 0.000000 0.000000 0.000000 0.000000 0.000000 0.000000 0.000000 0.000000 0.000000 0.000000 0.000000 0.000000 0.000000 0.000000 0.000000 0.000000 0.000000 0.000000 0.000000 0.000000 0.000000 0.000000 0.000000 0.000000 0.000000 0.000000 0.000000 0.000000 0.000000 0.000000 0.000000 0.000000 0.000000 0.000000 0.000000 0.000000 0.000000 0.000000 0.000000 0.000000 0.000000 0.000000 0.000000 0.000000 0.000000 0.000000 0.000000 0.000000 0.000000 0.000000
0.058815 0.140917 0.170815 -178.930525 -166.907975 7.787035 0.016870 2.706447 -0.040000 0.000000 0.000000 0.000000 0.000000 0.000000 -0.000000 -0.272414 4.753451 0.197015 -0.068490 -0.124738 -1.033079 -0.127025 3.160575 1.694898 0.841126 -0.784735 -3.974210 -0.108671 -0.665613 -1.154917 -0.068490 -0.124738 -1.033079 -0.020602 0.497151 -0.066891 0.392773 0.036348 4.144391 1.859549 0.148657 1.508358 -0.062715 0.015242 -0.347148 -0.212386 3.373218 0.719804 0.511952 -5.640698 -0.502444 -0.062715 0.015242 -0.347148 -0.055198 1.887227 -0.128066 -1.640340 -1.057371 -0.645334
0.059056 0.144176 0.174792 -178.974143 -168.692104 7.802170 -0.003029 4.504616 -0.074158 0.000000 0.000000 0.000000 0.000000 0.000000 -0.000000 -0.385063 4.753652 -1.425272 -0.506197 -0.283220 -1.969107 1.478803 4.014616 1.465376 -1.395635 2.753088 -6.681106 -0.574565 -1.473619 -2.931990 -0.506197 -0.283220 -1.969107 -0.609213 1.177519 0.116186 0.773580 0.866621 4.713466 1.336820 -0.619501 1.827622 -0.105584 0.021280 -0.362167 -0.283644 -2.677523 -0.454484 3.213789 -6.332407 0.391212 -0.105584 0.021280 -0.362167 -0.397592 -1.047754 0.045947 -2.836099 -0.786095 -1.181542
0.058310 0.151941 0.177638 -179.081465 -169.742560 7.682569 -0.266132 5.585709 -0.151594 0.000000 0.000000 0.000000 0.000000 0.000000 -0.000000 -0.491007 3.838779 -4.237138 -0.665298 -0.419853 -3.064692 2.441105 4.612633 1.360382 -0.854482 2.463252 -12.009382 -1.266409 -2.757038 -5.812623 -0.665298 -0.419853 -3.064692 -1.522293 1.982470 0.450723 1.521439 2.654827 5.427075 1.651042 -1.015869 2.530650 -0.211080 0.032800 -0.242315 -0.106432 -4.227056 -0.780774 6.801330 -5.287748 1.738759 -0.211080 0.032800 -0.242315 -0.434755 -4.038298 0.241943 -3.761137 -1.045869 -1.576056
0.060656 0.153725 0.180973 -179.098003 -171.649086 8.317714 -0.569688 7.562965 -0.242228 0.000000 0.000000 0.000000 0.000000 0.000000 -0.000000 -0.643860 3.484104 -7.456364 -1.266720 -0.742289 -5.553296 2.807726 5.322805 1.557675 -4.013253 6.737303 -12.169718 -1.920850 -1.353576 -4.178590 -1.266720 -0.742289 -5.553296 -2.935353 4.735910 0.806050 1.129109 0.847049 5.552082 0.092459 -1.314488 1.402091 -0.227294 0.048734 -0.877270 0.039124 -3.347083 -0.652729 8.559092 -4.711216 2.372385 -0.227294 0.048734 -0.877270 -0.751142 -7.817415 0.460376 -5.183267 -4.208195 -2.142005
0.066188 0.155442 0.175097 -179.083592 -171.970540 9.851840 -0.953335 7.989481 -0.325942 0.000000 0.000000 0.000000 0.000000 0.000000 -0.000000 -0.844210 3.721763 -10.287381 -2.015229 -0.967480 -7.181041 3.539594 3.594609 0.402374 -6.771848 11.771334 -14.496744 -3.428994 -0.853472 -4.992946 -2.015229 -0.967480 -7.181041 -4.126268 5.141474 1.386127 1.107520 1.501141 4.016299 0.004999 -0.671465 0.674266 -0.213633 0.079883 -2.411080 1.105866 -2.686191 -0.769157 10.761048 -2.602406 3.160285 -0.213633 0.079883 -2.411080 -1.190596 -8.011168 0.430446 -5.473923 -4.904009 -2.268360
